<svg width="400" height="400" viewBox="0 0 400 400" fill="none" xmlns="http://www.w3.org/2000/svg">
  <rect width="400" height="400" fill="white"/>
  <circle cx="200" cy="200" r="150" fill="#f3f4f6"/>
  <path d="M200 100C155.82 100 120 135.82 120 180C120 224.18 155.82 260 200 260C244.18 260 280 224.18 280 180C280 135.82 244.18 100 200 100ZM200 240C166.86 240 140 213.14 140 180C140 146.86 166.86 120 200 120C233.14 120 260 146.86 260 180C260 213.14 233.14 240 200 240Z" fill="#d1d5db"/>
  <path d="M180 160H220V200H180V160Z" fill="#9ca3af"/>
  <path d="M160 220H240V230H160V220Z" fill="#9ca3af"/>
  <path d="M170 240H230V250H170V240Z" fill="#9ca3af"/>
</svg>